<?xml version="1.0" encoding="utf-8"?>
<!-- Generator: Adobe Illustrator 16.0.0, SVG Export Plug-In . SVG Version: 6.00 Build 0)  -->
<!DOCTYPE svg PUBLIC "-//W3C//DTD SVG 1.1//EN" "http://www.w3.org/Graphics/SVG/1.1/DTD/svg11.dtd">
<svg version="1.1" id="Capa_1" xmlns="http://www.w3.org/2000/svg" xmlns:xlink="http://www.w3.org/1999/xlink" x="0px" y="0px"
	 width="1700.79px" height="850.39px" viewBox="0 0 1700.79 850.39" enable-background="new 0 0 1700.79 850.39"
	 xml:space="preserve">
<path fill-rule="evenodd" clip-rule="evenodd" fill="#AEADB3" d="M183.085,530.496c-3.939,2.177-7.699,3.765-11.284,4.836
	c-3.546,0.986-6.95,1.527-10.292,1.527c-4.627,0-7.757-1.242-9.399-3.76c-1.643-2.451-2.444-7.448-2.444-15.029
	c0-4.286,0.446-14.01,1.28-29.054c0.806-15.071,1.252-27.996,1.252-38.824c0-11.758-0.564-21.294-1.702-28.677
	c-1.128-7.314-2.982-13.581-5.457-18.744c3.461-2.056,7.01-3.67,10.682-4.714c3.669-1.102,7.344-1.64,10.895-1.64
	c4.324,0,7.28,1.071,8.858,3.193c1.586,2.104,2.42,6.013,2.42,11.788c0,1.491-0.417,9.742-1.251,24.685
	c-0.901,14.977-1.316,29.181-1.316,42.636c0,12.611,0.626,23.027,1.939,31.306C178.52,518.321,180.489,525.158,183.085,530.496
	L183.085,530.496z M181.98,353.355c0,5.401-1.882,9.816-5.64,13.429c-3.76,3.581-8.508,5.355-14.259,5.355
	c-5.016,0-8.96-1.388-11.822-4.252c-2.984-2.82-4.388-6.636-4.388-11.399c0-5.297,1.849-9.789,5.611-13.484
	c3.76-3.72,8.356-5.602,13.697-5.602c4.895,0,8.922,1.493,12.085,4.524C180.401,344.928,181.98,348.73,181.98,353.355
	L181.98,353.355z M247.037,428.469c-0.208,10.354-0.445,21.486-0.775,33.372c-0.353,11.91-0.51,18.613-0.51,20.107
	c0,12.231,0.6,22.154,1.702,29.812c1.109,7.638,2.897,13.996,5.343,19.04c-3.94,2.072-7.55,3.608-10.864,4.561
	c-3.281,1.029-6.502,1.499-9.727,1.499c-4.3,0-7.311-1.205-8.866-3.66c-1.612-2.461-2.418-7.548-2.418-15.414
	c0-1.683,0.484-10.416,1.494-26.156c0.986-15.754,1.491-30.646,1.491-44.66c0-13.309-0.538-23.518-1.548-30.797
	c-1.048-7.218-2.745-13.727-5.109-19.456c2.063-0.688,4.156-1.165,6.275-1.553c2.117-0.372,4.172-0.565,6.142-0.565
	c4.957,0,8.922,1.387,11.85,4.146c2.949,2.778,4.597,6.688,4.979,11.788c7.05-5.1,14.507-9.009,22.416-11.788
	c7.879-2.759,15.729-4.146,23.452-4.146c9.404,0,17.817,2.032,25.341,6.119c7.489,4.088,13.216,9.79,17.13,17.008
	c2.742,5,4.688,10.833,5.85,17.429c1.221,6.657,1.79,16.727,1.79,30.319c0,1.398-0.09,4.718-0.242,10.027
	c-0.152,5.234-0.176,9.814-0.176,13.669c0,9.681,0.598,18.021,1.911,24.961c1.251,6.983,3.131,12.432,5.666,16.366
	c-4.414,2.177-8.235,3.765-11.487,4.836c-3.25,0.986-6.183,1.527-8.833,1.527c-4.447,0-7.519-1.167-9.25-3.466
	c-1.735-2.3-2.565-6.657-2.565-13.043c0-3.864,0.266-12.142,0.891-24.919c0.6-12.754,0.927-23.602,0.927-32.523
	c0-17.045-2.629-29.381-7.761-37.037c-5.222-7.669-13.491-11.52-25.04-11.52c-5.815,0-12.054,1.196-18.86,3.609
	C260.853,420.367,254.023,423.843,247.037,428.469z"/>
<path fill-rule="evenodd" clip-rule="evenodd" fill="#AEADB3" d="M990.306,510.74c3.359,1.792,6.583,3.092,9.729,3.959
	c3.089,0.83,6.106,1.266,9.024,1.266c6.777,0,12.226-1.641,16.371-4.864c4.132-3.219,6.189-7.52,6.189-12.772
	c0-4.148-1.1-7.998-3.352-11.563c-2.273-3.627-6.51-7.95-12.728-13.014c-1-0.773-2.451-1.878-4.243-3.386
	c-15.904-13.189-23.843-24.843-23.843-34.975c0-4.134,0.82-8.266,2.403-12.412c1.598-4.149,3.954-8.091,7.031-11.864
	c5.936-7.029,12.891-12.429,20.832-16.127c7.935-3.732,16.572-5.582,25.766-5.582c4.535,0,7.951,0.863,10.31,2.582
	c2.37,1.742,3.521,4.251,3.521,7.565c0,1.594-0.415,3.474-1.254,5.681c-0.868,2.225-2.267,5.015-4.236,8.389
	c-2.556-1.016-4.952-1.78-7.237-2.313c-2.252-0.51-4.431-0.779-6.604-0.779c-7.794,0-14.147,1.943-18.959,5.729
	c-4.891,3.819-7.275,8.733-7.275,14.756c0,6.555,6.552,15.478,19.608,26.638c3.263,2.85,5.759,5.055,7.468,6.657
	c5.537,4.859,9.624,9.681,12.284,14.44c2.659,4.774,3.939,9.635,3.939,14.607c0,11.806-5.206,21.923-15.593,30.452
	c-10.369,8.52-23.057,12.777-37.887,12.777c-5.144,0-9.159-1.02-11.938-3.092c-2.76-2.071-4.16-5.025-4.16-8.79
	c0-1.764,0.405-3.73,1.121-5.907C987.35,516.619,988.561,513.936,990.306,510.74L990.306,510.74z M1124.383,526.983
	c-3.949,2.171-7.713,3.755-11.262,4.812c-3.58,1.029-7.01,1.551-10.324,1.551c-4.627,0-7.761-1.247-9.401-3.76
	c-1.643-2.446-2.444-7.472-2.444-15.024c0-4.295,0.43-14.024,1.297-29.053c0.82-15.087,1.252-27.991,1.252-38.839
	c0-11.758-0.578-21.293-1.686-28.661c-1.164-7.327-2.984-13.595-5.49-18.739c3.463-2.079,7.041-3.673,10.717-4.717
	c3.637-1.118,7.307-1.656,10.859-1.656c4.341,0,7.283,1.075,8.883,3.192c1.574,2.119,2.395,6.026,2.395,11.8
	c0,1.479-0.451,9.73-1.254,24.667c-0.861,14.981-1.275,29.186-1.275,42.646c0,12.621,0.621,23.009,1.903,31.306
	C1119.809,514.804,1121.773,521.636,1124.383,526.983L1124.383,526.983z M1123.281,349.834c0,5.4-1.875,9.835-5.635,13.445
	c-3.765,3.564-8.525,5.354-14.254,5.354c-5.028,0-8.982-1.401-11.877-4.263c-2.925-2.84-4.371-6.632-4.371-11.418
	c0-5.283,1.868-9.773,5.642-13.472c3.745-3.718,8.34-5.597,13.683-5.597c4.905,0,8.906,1.509,12.083,4.522
	C1121.688,341.416,1123.281,345.207,1123.281,349.834L1123.281,349.834z M1452.887,424.946c-0.194,10.354-0.445,21.486-0.771,33.392
	c-0.339,11.895-0.49,18.589-0.49,20.088c0,12.236,0.595,22.169,1.697,29.82c1.103,7.614,2.892,13.973,5.341,19.031
	c-3.949,2.053-7.566,3.607-10.893,4.594c-3.283,1.001-6.5,1.475-9.725,1.475c-4.283,0-7.289-1.204-8.858-3.646
	c-1.588-2.451-2.415-7.586-2.415-15.438c0-1.673,0.48-10.396,1.481-26.156c1.017-15.74,1.493-30.646,1.493-44.656
	c0-13.313-0.523-23.519-1.558-30.801c-1.038-7.218-2.712-13.723-5.097-19.458c2.086-0.671,4.16-1.163,6.287-1.531
	c2.103-0.405,4.188-0.599,6.153-0.599c4.969,0,8.925,1.418,11.851,4.161c2.946,2.789,4.587,6.684,4.967,11.786
	c7.045-5.103,14.488-8.998,22.403-11.786c7.911-2.743,15.75-4.161,23.476-4.161c9.396,0,17.819,2.028,25.339,6.129
	c7.464,4.091,13.211,9.779,17.15,17.011c2.698,5.017,4.67,10.833,5.831,17.429c1.195,6.656,1.783,16.741,1.783,30.319
	c0,1.389-0.109,4.713-0.226,10.027c-0.158,5.253-0.216,9.818-0.216,13.668c0,9.7,0.633,18.021,1.93,24.962
	c1.269,6.983,3.135,12.432,5.683,16.376c-4.414,2.171-8.237,3.755-11.521,4.812c-3.217,1.029-6.178,1.551-8.818,1.551
	c-4.414,0-7.508-1.147-9.229-3.475c-1.735-2.3-2.596-6.638-2.596-13.043c0-3.859,0.268-12.143,0.889-24.919
	c0.626-12.754,0.924-23.606,0.924-32.528c0-17.035-2.596-29.391-7.756-37.029c-5.211-7.671-13.49-11.524-25.012-11.524
	c-5.822,0-12.09,1.198-18.893,3.615C1466.727,416.856,1459.877,420.32,1452.887,424.946z"/>
<path fill-rule="evenodd" clip-rule="evenodd" fill="#AEADB3" d="M429.523,395.237v17.652c12.296-13.581,26.292-20.383,41.93-20.383
	c8.681,0,16.743,2.212,24.201,6.716c7.491,4.477,13.164,10.624,17.042,18.47c3.88,7.805,5.815,20.201,5.815,37.142v79.603H491
	v-79.275c0-14.28-2.178-24.394-6.507-30.484c-4.359-6.144-11.609-9.205-21.785-9.205c-13.043,0-24.083,6.521-33.185,19.53v99.435
	h-28.141V395.237H429.523L429.523,395.237z M623.53,394.926c21.197,0,38.791,6.817,52.806,20.501
	c14.071,13.636,21.081,30.825,21.081,51.505c0,20.083-7.116,36.768-21.337,50.047c-14.25,13.218-32.125,19.88-53.714,19.88
	c-20.937,0-38.377-6.724-52.389-20.192c-14.046-13.488-21.024-30.306-21.024-50.483c0-20.377,7.088-37.331,21.233-50.904
	C584.393,401.697,602.162,394.926,623.53,394.926L623.53,394.926z M622.037,419.723c-13.204,0-24.07,4.331-32.524,13.008
	c-8.467,8.686-12.704,19.729-12.704,33.159c0,13.327,4.34,24.185,13.017,32.591c8.681,8.41,19.78,12.668,33.406,12.668
	c13.55,0,24.589-4.286,33.23-12.82c8.624-8.506,12.962-19.414,12.962-32.742c0-13.231-4.485-24.17-13.488-32.855
	C646.941,424.054,635.644,419.723,622.037,419.723L622.037,419.723z M810.117,395.237h29.856l-61.46,141.622h-9.248l-62.909-141.622
	h30.11l37.497,85.648L810.117,395.237L810.117,395.237z M948.129,450.757v59.149c0,4.745,1.662,7.135,4.855,7.135
	c3.328,0,8.539-2.493,15.612-7.4v16.802c-6.266,4.03-11.253,6.757-15.074,8.202c-3.788,1.494-7.769,2.215-11.902,2.215
	c-11.763,0-18.744-4.642-20.847-13.939c-11.734,9.07-24.189,13.636-37.391,13.636c-9.684,0-17.755-3.21-24.203-9.605
	c-6.465-6.42-9.686-14.446-9.686-24.118c0-8.785,3.134-16.636,9.446-23.554c6.311-6.927,15.283-12.407,26.86-16.433l35.255-12.089
	v-7.43c0-16.739-8.34-25.111-25.083-25.111c-15.041,0-29.703,7.745-43.914,23.291v-30.108
	c10.691-12.593,26.083-18.892,46.166-18.892c15.041,0,27.103,3.912,36.172,11.758c3.002,2.537,5.728,5.909,8.162,10.088
	c2.435,4.181,3.987,8.355,4.599,12.532C947.84,431.126,948.129,439.031,948.129,450.757L948.129,450.757z M921.056,506.891v-41.305
	l-18.49,7.136c-9.333,3.703-15.991,7.477-19.87,11.255c-3.868,3.76-5.848,8.473-5.848,14.139c0,5.736,1.86,10.449,5.519,14.057
	c3.745,3.675,8.491,5.48,14.322,5.48C905.479,517.652,913.584,514.021,921.056,506.891z"/>
<path fill-rule="evenodd" clip-rule="evenodd" fill="#AEADB3" d="M1247.682,332.48c-16.577-21.488-86.428-86.75-116.13-86.394
	c-8.539,0.033-51.434,13.891-50.48,25.737c1.254,15.296,38.407,16.863,82.573,41.349c16.636,9.19,33.977,19.771,47.688,30.899
	C1221.061,339.178,1236.613,334.631,1247.682,332.48L1247.682,332.48z"/>
<path fill-rule="evenodd" clip-rule="evenodd" fill="#AEADB3" d="M1402.413,437.719c-14.979-71.158-83.663-117.37-154.731-105.239
	c6.178,7.462,10.577,14.861,11.902,21.171c2.662,12.579-11.042,18.294-21.42,10.64c-5.389-3.712-15.098-11.31-26.832-20.22
	c-54.67,26.429-86.304,87.422-73.278,149.332c15.383,72.998,87.011,119.702,160.028,104.337
	C1371.082,582.33,1417.803,510.727,1402.413,437.719z M1344.67,482.512c0.519,2.356,0.645,4.803,0.696,7.06
	c0,0-26.99-7.623-44.77-27.413c2.112-1.043,4.482-1.772,6.92-2.285C1325.07,456.09,1341.055,465.648,1344.67,482.512z
	 M1285.803,359.576c18.25-3.846,36.23,7.717,40.08,25.966c3.843,18.247-7.905,36.3-26.17,40.164
	c-18.229,3.838-36.075-7.982-39.91-26.262C1255.945,381.212,1267.53,363.426,1285.803,359.576z M1319.492,554.505
	c-7.855,9.61-17.203,14.954-24.035,9.971c-6.293-4.599-9.069-11.743-0.732-23.188c5.223-7.178,12.405-17.172,12.405-17.172
	s17.364,9.667,26.434,10.368C1333.563,534.483,1325.421,547.213,1319.492,554.505z M1342.895,529.368
	c-3.135,0.649-6.287,0.237-9.113-0.706c-11.85-4.012-23.098-9.487-33.502-16.039c0,0-16.442-11.336-23.25-17.353
	c-4.336-3.911-9.639-8.776-12.289-12.279c-9.24-12.313-17.238-22.217-33.058-17.405c-7.756,2.366-14.472,12.252-10.979,23.985
	c1.82,6.026,11.345,13.905,19.829,13.01c12.369-1.271,22.762-10.805,22.762-10.805s14.202,16.162,31.032,24.094
	c0,0-11.404,21.33-35.259,28.275c-19.981,5.855-51.519,6.614-75.409-28.569c-14.358-21.159-7.093-53.807,2.769-70.248
	c22.878-38.166,58.417-43.868,78.683-20.676c11.718,13.412,17.351,30.627,31.557,41.612c14.328,13.593,30.559,22.795,48.795,30.077
	c5.244,1.943,9.3,6.538,10.566,12.417C1358.014,517.994,1352.142,527.349,1342.895,529.368z"/>
<g>
</g>
<g>
</g>
<g>
</g>
<g>
</g>
<g>
</g>
<g>
</g>
</svg>
