<?xml version="1.0" encoding="utf-8"?>
<!-- Generator: Adobe Illustrator 16.0.0, SVG Export Plug-In . SVG Version: 6.00 Build 0)  -->
<!DOCTYPE svg PUBLIC "-//W3C//DTD SVG 1.1//EN" "http://www.w3.org/Graphics/SVG/1.1/DTD/svg11.dtd">
<svg version="1.1" id="Capa_1" xmlns="http://www.w3.org/2000/svg" xmlns:xlink="http://www.w3.org/1999/xlink" x="0px" y="0px"
	 width="1432.353px" height="395.588px" viewBox="0 0 1432.353 395.588" enable-background="new 0 0 1432.353 395.588"
	 xml:space="preserve">
<path fill-rule="evenodd" clip-rule="evenodd" fill="#FFFFFF" d="M999.909,363.775c-2.636,5.803-8.745,13.326-11.25,16.337
	c-5.802,6.998-9.547,7.282-14.148,6.358c-4.622-0.939-3.86-2.869-2.297-4.424c2.016-1.996,7.373-3.096,12.898-9.814
	c2.383-2.862,4.896-6.115,7.038-8.86c2.141,0.417,4.359,0.598,6.659,0.479C999.181,363.836,999.551,363.789,999.909,363.775z"/>
<path fill-rule="evenodd" clip-rule="evenodd" fill="#FFFFFF" d="M49.909,298.566c-3.939,2.177-7.699,3.765-11.284,4.836
	c-3.546,0.985-6.95,1.527-10.293,1.527c-4.627,0-7.756-1.243-9.399-3.761c-1.643-2.45-2.444-7.448-2.444-15.028
	c0-4.286,0.446-14.011,1.281-29.054c0.806-15.072,1.251-27.996,1.251-38.824c0-11.759-0.564-21.293-1.702-28.677
	c-1.129-7.314-2.982-13.581-5.457-18.744c3.461-2.057,7.01-3.671,10.682-4.713c3.669-1.103,7.344-1.641,10.895-1.641
	c4.324,0,7.28,1.071,8.858,3.193c1.586,2.104,2.42,6.013,2.42,11.787c0,1.491-0.417,9.742-1.251,24.685
	c-0.901,14.977-1.315,29.181-1.315,42.636c0,12.611,0.625,23.028,1.939,31.305C45.343,286.39,47.313,293.228,49.909,298.566
	L49.909,298.566z M48.804,121.424c0,5.402-1.882,9.817-5.639,13.429c-3.76,3.581-8.508,5.355-14.259,5.355
	c-5.016,0-8.961-1.389-11.822-4.253c-2.984-2.82-4.388-6.637-4.388-11.399c0-5.297,1.849-9.789,5.611-13.484
	c3.76-3.719,8.356-5.602,13.697-5.602c4.896,0,8.923,1.494,12.085,4.524C47.225,112.997,48.804,116.8,48.804,121.424L48.804,121.424
	z M113.861,196.539c-0.208,10.354-0.445,21.487-0.775,33.372c-0.353,11.909-0.51,18.613-0.51,20.107
	c0,12.231,0.6,22.154,1.702,29.812c1.109,7.637,2.896,13.996,5.343,19.04c-3.94,2.071-7.55,3.607-10.864,4.561
	c-3.281,1.028-6.502,1.499-9.726,1.499c-4.3,0-7.311-1.205-8.866-3.66c-1.612-2.461-2.418-7.549-2.418-15.414
	c0-1.683,0.483-10.415,1.493-26.156c0.986-15.754,1.491-30.646,1.491-44.66c0-13.309-0.538-23.517-1.548-30.797
	c-1.048-7.218-2.745-13.727-5.108-19.457c2.063-0.688,4.155-1.165,6.274-1.552c2.118-0.372,4.172-0.565,6.143-0.565
	c4.957,0,8.923,1.387,11.85,4.146c2.949,2.778,4.597,6.688,4.979,11.787c7.05-5.1,14.508-9.009,22.416-11.787
	c7.88-2.759,15.728-4.146,23.452-4.146c9.404,0,17.817,2.032,25.341,6.118c7.488,4.088,13.215,9.791,17.129,17.009
	c2.743,4.999,4.689,10.832,5.851,17.429c1.22,6.656,1.789,16.726,1.789,30.318c0,1.399-0.089,4.719-0.242,10.028
	c-0.151,5.234-0.175,9.813-0.175,13.669c0,9.681,0.598,18.021,1.911,24.961c1.251,6.983,3.132,12.432,5.666,16.366
	c-4.414,2.177-8.235,3.765-11.487,4.836c-3.25,0.985-6.183,1.527-8.833,1.527c-4.447,0-7.52-1.167-9.25-3.466
	c-1.735-2.301-2.565-6.657-2.565-13.043c0-3.864,0.266-12.143,0.891-24.92c0.6-12.753,0.927-23.601,0.927-32.523
	c0-17.044-2.629-29.381-7.761-37.036c-5.222-7.67-13.491-11.52-25.04-11.52c-5.815,0-12.055,1.196-18.86,3.609
	C127.676,188.438,120.847,191.912,113.861,196.539z"/>
<path fill-rule="evenodd" clip-rule="evenodd" fill="#FFFFFF" d="M857.129,278.81c3.359,1.792,6.583,3.091,9.729,3.959
	c3.09,0.83,6.106,1.266,9.024,1.266c6.778,0,12.226-1.64,16.371-4.865c4.133-3.219,6.189-7.519,6.189-12.771
	c0-4.148-1.1-7.998-3.352-11.563c-2.273-3.627-6.51-7.95-12.728-13.015c-1-0.772-2.451-1.877-4.243-3.385
	c-15.904-13.189-23.844-24.844-23.844-34.975c0-4.133,0.821-8.266,2.404-12.412c1.598-4.149,3.954-8.091,7.031-11.865
	c5.936-7.028,12.891-12.429,20.833-16.126c7.934-3.732,16.571-5.582,25.765-5.582c4.535,0,7.951,0.863,10.31,2.582
	c2.37,1.742,3.52,4.251,3.52,7.565c0,1.594-0.415,3.474-1.253,5.681c-0.868,2.225-2.267,5.015-4.237,8.389
	c-2.556-1.016-4.952-1.78-7.237-2.313c-2.251-0.51-4.43-0.779-6.604-0.779c-7.794,0-14.146,1.943-18.959,5.73
	c-4.891,3.819-7.275,8.733-7.275,14.757c0,6.554,6.553,15.477,19.609,26.638c3.262,2.849,5.759,5.053,7.468,6.655
	c5.537,4.86,9.624,9.682,12.284,14.441c2.658,4.774,3.939,9.634,3.939,14.607c0,11.806-5.206,21.923-15.593,30.451
	c-10.369,8.521-23.057,12.777-37.887,12.777c-5.145,0-9.16-1.019-11.938-3.091c-2.76-2.072-4.16-5.025-4.16-8.79
	c0-1.764,0.405-3.73,1.12-5.906C854.173,284.689,855.385,282.005,857.129,278.81L857.129,278.81z M991.207,295.053
	c-3.949,2.171-7.713,3.755-11.262,4.812c-3.58,1.029-7.01,1.551-10.324,1.551c-4.628,0-7.762-1.247-9.401-3.76
	c-1.643-2.446-2.444-7.472-2.444-15.024c0-4.296,0.43-14.023,1.297-29.054c0.82-15.086,1.251-27.99,1.251-38.839
	c0-11.757-0.577-21.293-1.685-28.66c-1.164-7.328-2.985-13.595-5.49-18.739c3.463-2.079,7.04-3.673,10.717-4.717
	c3.637-1.118,7.306-1.656,10.86-1.656c4.34,0,7.281,1.076,8.881,3.192c1.575,2.119,2.395,6.026,2.395,11.801
	c0,1.478-0.45,9.729-1.254,24.666c-0.859,14.982-1.275,29.186-1.275,42.646c0,12.621,0.622,23.009,1.904,31.306
	C986.631,282.874,988.597,289.705,991.207,295.053L991.207,295.053z M990.104,117.904c0,5.4-1.875,9.835-5.635,13.444
	c-3.765,3.564-8.523,5.354-14.254,5.354c-5.027,0-8.981-1.401-11.876-4.263c-2.926-2.84-4.372-6.632-4.372-11.418
	c0-5.283,1.868-9.773,5.643-13.472c3.746-3.718,8.339-5.596,13.683-5.596c4.905,0,8.906,1.508,12.083,4.521
	C988.512,109.485,990.104,113.277,990.104,117.904L990.104,117.904z M1319.709,193.016c-0.194,10.354-0.445,21.487-0.77,33.392
	c-0.339,11.895-0.491,18.59-0.491,20.087c0,12.237,0.595,22.169,1.698,29.821c1.102,7.615,2.892,13.973,5.34,19.03
	c-3.949,2.054-7.567,3.608-10.892,4.595c-3.283,1-6.501,1.475-9.725,1.475c-4.284,0-7.29-1.204-8.858-3.646
	c-1.589-2.45-2.416-7.585-2.416-15.437c0-1.673,0.481-10.397,1.481-26.156c1.018-15.741,1.493-30.646,1.493-44.656
	c0-13.312-0.523-23.52-1.557-30.801c-1.039-7.218-2.713-13.723-5.097-19.458c2.086-0.671,4.16-1.163,6.287-1.531
	c2.102-0.405,4.188-0.599,6.153-0.599c4.969,0,8.925,1.417,11.851,4.161c2.946,2.789,4.587,6.684,4.966,11.786
	c7.045-5.103,14.489-8.998,22.404-11.786c7.91-2.743,15.75-4.161,23.475-4.161c9.396,0,17.819,2.028,25.339,6.129
	c7.465,4.09,13.211,9.778,17.151,17.01c2.697,5.018,4.67,10.833,5.831,17.428c1.194,6.658,1.783,16.743,1.783,30.321
	c0,1.39-0.109,4.712-0.226,10.027c-0.159,5.253-0.216,9.818-0.216,13.668c0,9.7,0.634,18.021,1.93,24.962
	c1.269,6.984,3.134,12.431,5.683,16.376c-4.414,2.171-8.238,3.755-11.521,4.812c-3.217,1.029-6.178,1.551-8.818,1.551
	c-4.414,0-7.507-1.147-9.229-3.476c-1.735-2.299-2.596-6.637-2.596-13.042c0-3.86,0.268-12.142,0.889-24.919
	c0.627-12.754,0.925-23.605,0.925-32.529c0-17.034-2.595-29.391-7.757-37.028c-5.211-7.671-13.489-11.525-25.011-11.525
	c-5.821,0-12.09,1.199-18.894,3.615C1333.549,184.926,1326.701,188.39,1319.709,193.016z"/>
<path fill-rule="evenodd" clip-rule="evenodd" fill="#FFFFFF" d="M296.347,163.307v17.652c12.295-13.581,26.292-20.383,41.93-20.383
	c8.681,0,16.743,2.212,24.201,6.715c7.49,4.477,13.163,10.624,17.042,18.471c3.88,7.805,5.815,20.201,5.815,37.141v79.603h-27.51
	V223.23c0-14.279-2.179-24.393-6.507-30.483c-4.359-6.144-11.609-9.205-21.785-9.205c-13.042,0-24.083,6.521-33.185,19.53v99.434
	h-28.141V163.307H296.347L296.347,163.307z M490.354,162.996c21.197,0,38.792,6.817,52.806,20.501
	c14.071,13.637,21.081,30.825,21.081,51.505c0,20.083-7.117,36.768-21.337,50.047c-14.249,13.218-32.125,19.88-53.713,19.88
	c-20.937,0-38.377-6.724-52.389-20.192c-14.045-13.489-21.024-30.305-21.024-50.483c0-20.376,7.088-37.331,21.233-50.905
	C451.216,169.767,468.986,162.996,490.354,162.996L490.354,162.996z M488.86,187.792c-13.204,0-24.07,4.332-32.524,13.008
	c-8.467,8.687-12.704,19.728-12.704,33.159c0,13.327,4.34,24.185,13.017,32.591c8.681,8.41,19.78,12.667,33.405,12.667
	c13.55,0,24.59-4.285,33.23-12.819c8.624-8.506,12.962-19.415,12.962-32.742c0-13.232-4.485-24.169-13.488-32.855
	C513.765,192.124,502.467,187.792,488.86,187.792L488.86,187.792z M676.94,163.307h29.857l-61.461,141.622h-9.247l-62.91-141.622
	h30.111l37.497,85.648L676.94,163.307L676.94,163.307z M814.954,218.826v59.15c0,4.746,1.66,7.135,4.854,7.135
	c3.329,0,8.539-2.494,15.612-7.4v16.803c-6.265,4.029-11.252,6.756-15.073,8.201c-3.789,1.494-7.769,2.215-11.903,2.215
	c-11.763,0-18.743-4.643-20.846-13.939c-11.734,9.07-24.189,13.636-37.391,13.636c-9.684,0-17.756-3.21-24.203-9.606
	c-6.464-6.419-9.686-14.446-9.686-24.117c0-8.785,3.134-16.637,9.447-23.554c6.31-6.927,15.283-12.407,26.86-16.433l35.255-12.09
	v-7.43c0-16.738-8.34-25.11-25.083-25.11c-15.041,0-29.702,7.745-43.914,23.29v-30.108c10.69-12.593,26.082-18.892,46.167-18.892
	c15.04,0,27.102,3.912,36.171,11.758c3.001,2.537,5.728,5.909,8.161,10.088c2.436,4.181,3.988,8.355,4.6,12.532
	C814.664,199.196,814.954,207.101,814.954,218.826L814.954,218.826z M787.879,274.96v-41.305l-18.491,7.136
	c-9.332,3.702-15.991,7.477-19.869,11.255c-3.868,3.76-5.849,8.473-5.849,14.138c0,5.737,1.861,10.45,5.52,14.058
	c3.744,3.674,8.49,5.48,14.323,5.48C772.302,285.722,780.407,282.09,787.879,274.96z"/>
<g>
	<path fill="#FFFFFF" d="M729.771,368.625v-31.696c0-1.646,0.375-2.882,1.126-3.705c0.75-0.823,1.719-1.235,2.908-1.235
		c1.226,0,2.219,0.407,2.978,1.222c0.76,0.814,1.14,2.054,1.14,3.719v31.696c0,1.665-0.38,2.909-1.14,3.732
		c-0.759,0.823-1.752,1.235-2.978,1.235c-1.171,0-2.136-0.417-2.895-1.249C730.151,371.511,729.771,370.271,729.771,368.625z"/>
	<path fill="#FFFFFF" d="M776.589,367.116h-7.081V356.66h-10.51v-7.19h10.51v-10.511h7.081v10.511h10.565v7.19h-10.565V367.116z"/>
	<path fill="#FFFFFF" d="M812.952,332.674h10.62c2.763,0,5.132,0.256,7.108,0.769c1.976,0.512,3.769,1.473,5.379,2.881
		c4.189,3.587,6.284,9.039,6.284,16.356c0,2.415-0.211,4.62-0.631,6.614c-0.422,1.994-1.07,3.791-1.949,5.393
		c-0.878,1.601-2.003,3.032-3.375,4.294c-1.08,0.971-2.26,1.748-3.54,2.333c-1.281,0.586-2.658,0.997-4.131,1.235
		c-1.473,0.237-3.133,0.356-4.98,0.356h-10.62c-1.482,0-2.599-0.224-3.349-0.672s-1.239-1.08-1.468-1.895
		c-0.229-0.813-0.344-1.87-0.344-3.169v-29.502c0-1.756,0.394-3.027,1.181-3.814C809.923,333.068,811.195,332.674,812.952,332.674z
		 M816.108,339.124v27.306h6.175c1.354,0,2.415-0.036,3.183-0.109c0.769-0.073,1.564-0.257,2.388-0.549
		c0.823-0.293,1.537-0.704,2.141-1.235c2.726-2.306,4.089-6.275,4.089-11.91c0-3.97-0.6-6.943-1.797-8.919
		c-1.199-1.977-2.676-3.233-4.433-3.773c-1.756-0.54-3.879-0.81-6.366-0.81H816.108z"/>
	<path fill="#FFFFFF" d="M879.062,367.116h-7.081V356.66h-10.51v-7.19h10.51v-10.511h7.081v10.511h10.565v7.19h-10.565V367.116z"/>
	<path fill="#FFFFFF" d="M936.116,368.35l-1.921-5.05h-16.356l-1.921,5.16c-0.751,2.013-1.391,3.371-1.921,4.075
		c-0.531,0.704-1.399,1.057-2.607,1.057c-1.024,0-1.931-0.376-2.717-1.126c-0.787-0.75-1.18-1.601-1.18-2.552
		c0-0.549,0.091-1.116,0.274-1.701c0.183-0.586,0.484-1.4,0.905-2.442l10.291-26.126c0.293-0.75,0.645-1.651,1.057-2.703
		s0.851-1.926,1.317-2.621s1.079-1.258,1.839-1.688c0.759-0.43,1.696-0.646,2.813-0.646c1.135,0,2.081,0.216,2.841,0.646
		c0.759,0.43,1.372,0.983,1.838,1.66c0.467,0.677,0.86,1.404,1.181,2.182c0.319,0.777,0.728,1.816,1.221,3.115l10.511,25.961
		c0.823,1.976,1.235,3.412,1.235,4.309c0,0.933-0.389,1.788-1.166,2.565c-0.778,0.777-1.716,1.167-2.813,1.167
		c-0.641,0-1.189-0.115-1.646-0.344s-0.842-0.539-1.152-0.933c-0.312-0.394-0.646-0.997-1.002-1.812
		C936.678,369.691,936.372,368.972,936.116,368.35z M919.979,357.181h12.02l-6.064-16.604L919.979,357.181z"/>
	<path fill="#FFFFFF" d="M950.276,369.037v-32.493c0-1.5,0.334-2.635,1.002-3.402c0.668-0.769,1.568-1.153,2.703-1.153
		c1.134,0,2.049,0.38,2.744,1.14c0.695,0.759,1.043,1.897,1.043,3.416v32.493c0,1.519-0.353,2.657-1.057,3.416
		c-0.704,0.76-1.614,1.14-2.73,1.14c-1.098,0-1.989-0.395-2.676-1.181C950.62,371.625,950.276,370.5,950.276,369.037z"/>
	<path fill="#FFFFFF" d="M965.507,369.037v-32.493c0-1.5,0.334-2.635,1.002-3.402c0.668-0.769,1.568-1.153,2.703-1.153
		c1.134,0,2.049,0.38,2.744,1.14c0.695,0.759,1.043,1.897,1.043,3.416v32.493c0,1.519-0.353,2.657-1.057,3.416
		c-0.704,0.76-1.614,1.14-2.73,1.14c-1.098,0-1.989-0.395-2.676-1.181C965.851,371.625,965.507,370.5,965.507,369.037z"/>
</g>
<path fill-rule="evenodd" clip-rule="evenodd" fill="#FFFFFF" d="M1114.505,100.549c-16.578-21.487-86.428-86.749-116.131-86.394
	c-8.538,0.033-51.433,13.891-50.479,25.737c1.253,15.296,38.407,16.863,82.572,41.349c16.637,9.19,33.978,19.77,47.688,30.899
	C1087.884,107.247,1103.438,102.701,1114.505,100.549L1114.505,100.549z"/>
<path fill-rule="evenodd" clip-rule="evenodd" fill="#FFFFFF" d="M1269.237,205.789c-14.979-71.158-83.663-117.37-154.731-105.239
	c6.177,7.462,10.577,14.861,11.902,21.171c2.662,12.579-11.042,18.295-21.42,10.64c-5.389-3.712-15.099-11.31-26.832-20.22
	c-54.669,26.429-86.304,87.424-73.278,149.332c15.383,72.998,87.011,119.702,160.027,104.336
	C1237.905,350.4,1284.626,278.795,1269.237,205.789z M1211.494,250.582c0.519,2.356,0.644,4.803,0.696,7.06
	c0,0-26.99-7.623-44.77-27.413c2.111-1.043,4.482-1.773,6.919-2.284C1191.894,224.16,1207.878,233.717,1211.494,250.582z
	 M1152.626,127.646c18.249-3.846,36.229,7.717,40.08,25.966c3.843,18.247-7.905,36.3-26.17,40.164
	c-18.23,3.838-36.076-7.981-39.911-26.262C1122.768,149.282,1134.354,131.496,1152.626,127.646z M1186.315,322.575
	c-7.855,9.61-17.202,14.953-24.034,9.97c-6.294-4.598-9.069-11.742-0.732-23.188c5.222-7.179,12.405-17.173,12.405-17.173
	s17.364,9.667,26.434,10.369C1200.387,302.553,1192.245,315.283,1186.315,322.575z M1209.717,297.438
	c-3.134,0.649-6.287,0.236-9.112-0.707c-11.85-4.011-23.098-9.486-33.503-16.039c0,0-16.442-11.335-23.249-17.352
	c-4.336-3.912-9.64-8.775-12.29-12.28c-9.24-12.313-17.238-22.217-33.057-17.404c-7.756,2.367-14.473,12.251-10.98,23.985
	c1.821,6.026,11.345,13.906,19.83,13.01c12.369-1.271,22.762-10.805,22.762-10.805s14.202,16.162,31.032,24.094
	c0,0-11.404,21.33-35.26,28.275c-19.981,5.855-51.518,6.613-75.408-28.57c-14.359-21.158-7.093-53.806,2.769-70.248
	c22.878-38.165,58.416-43.868,78.684-20.675c11.717,13.412,17.35,30.627,31.556,41.611c14.327,13.594,30.559,22.796,48.796,30.078
	c5.243,1.943,9.299,6.538,10.564,12.416C1224.836,286.064,1218.964,295.417,1209.717,297.438z"/>
<g>
</g>
<g>
</g>
<g>
</g>
<g>
</g>
<g>
</g>
<g>
</g>
</svg>
