<?xml version="1.0" encoding="utf-8"?>
<!-- Generator: Adobe Illustrator 16.0.0, SVG Export Plug-In . SVG Version: 6.00 Build 0)  -->
<!DOCTYPE svg PUBLIC "-//W3C//DTD SVG 1.1//EN" "http://www.w3.org/Graphics/SVG/1.1/DTD/svg11.dtd">
<svg version="1.1" id="Capa_1" xmlns="http://www.w3.org/2000/svg" xmlns:xlink="http://www.w3.org/1999/xlink" x="0px" y="0px"
	 width="422.882px" height="395.412px" viewBox="0 0 422.882 395.412" enable-background="new 0 0 422.882 395.412"
	 xml:space="preserve">
<g>
	<path fill-rule="evenodd" clip-rule="evenodd" fill="#A4BE31" d="M206.474,122.166c-14.497-18.791-75.582-75.863-101.557-75.552
		c-7.467,0.029-44.979,12.148-44.146,22.507c1.097,13.376,33.587,14.747,72.21,36.16c14.549,8.037,29.713,17.289,41.704,27.021
		C183.193,128.023,196.794,124.047,206.474,122.166L206.474,122.166z"/>
	<path fill-rule="evenodd" clip-rule="evenodd" fill="#FFFFFF" d="M341.787,214.197c-13.1-62.228-73.164-102.641-135.313-92.032
		c5.402,6.526,9.249,12.996,10.408,18.515c2.328,11-9.656,15.999-18.732,9.305c-4.712-3.247-13.203-9.891-23.465-17.683
		c-47.809,23.112-75.474,76.452-64.082,130.592c13.452,63.838,76.091,104.681,139.946,91.243
		C314.388,340.662,355.246,278.043,341.787,214.197z M258.799,233.572c15.352-3.309,29.33,5.05,32.491,19.798
		c0.454,2.061,0.563,4.2,0.609,6.174c0,0-23.604-6.667-39.151-23.974C254.595,234.658,256.668,234.021,258.799,233.572z
		 M269.272,316.328c-6.87,8.404-15.044,13.077-21.019,8.72c-5.504-4.021-7.932-10.271-0.641-20.278
		c4.566-6.277,10.848-15.018,10.848-15.018s15.186,8.454,23.117,9.067C281.578,298.819,274.457,309.952,269.272,316.328z
		 M289.737,294.346c-2.74,0.568-5.498,0.207-7.969-0.617c-10.363-3.508-20.2-8.297-29.299-14.026c0,0-14.378-9.914-20.332-15.175
		c-3.792-3.421-8.429-7.675-10.747-10.738c-8.08-10.768-15.075-19.429-28.908-15.221c-6.783,2.069-12.656,10.714-9.603,20.976
		c1.592,5.27,9.921,12.16,17.341,11.376c10.817-1.11,19.905-9.448,19.905-9.448s12.42,14.134,27.139,21.07
		c0,0-9.974,18.653-30.835,24.728c-17.474,5.12-45.053,5.783-65.945-24.984c-12.557-18.504-6.203-47.055,2.421-61.433
		c20.007-33.376,51.086-38.363,68.808-18.082c10.247,11.729,15.173,26.784,27.597,36.39c12.529,11.887,26.724,19.935,42.672,26.303
		c4.586,1.7,8.133,5.718,9.239,10.858C302.959,284.399,297.824,292.58,289.737,294.346z"/>
	<path fill-rule="evenodd" clip-rule="evenodd" fill="#C43C2C" d="M239.81,145.862c15.961-3.364,31.685,6.749,35.052,22.707
		c3.36,15.957-6.914,31.745-22.887,35.124c-15.941,3.356-31.548-6.98-34.902-22.966C213.7,164.782,223.831,149.229,239.81,145.862
		L239.81,145.862z"/>
</g>
<g>
</g>
<g>
</g>
<g>
</g>
<g>
</g>
<g>
</g>
<g>
</g>
</svg>
